#!OML:ASF H:\ManfredETheater\Project 1\Capture day 1\Session 1\subject.ASF
:FULLY-SPECIFIED
:DEGREES
276
root 2.02005 17.8935 -4.89127 5.41311 -5.54657 1.08722
lowerback -1.45198 0.503936 -8.52911
upperback 2.50504 0.859896 2.71386
thorax 3.27391 0.172638 7.69923
lowerneck -12.5354 -5.38815 0.113708
upperneck 41.2009 -8.03581 -1.36227
head 17.0262 -3.49468 -2.04477
rclavicle -5.86415e-015 -3.81667e-014
rhumerus -2.15529 -27.2235 -22.4026
rradius 94.0536
rwrist 9.4519
rhand -48.0753 -12.9173
rfingers 7.12502
rthumb -20.7407 -41.8289
lclavicle -5.86415e-015 -3.81667e-014
lhumerus -103.956 -65.6144 114.525
lradius 114.642
lwrist 24.6265
lhand 56.8702 18.8702
lfingers 7.12502
lthumb 73.6381 -3.05231
rfemur -14.6898 -1.05155 7.79573
rtibia 29.5154
rfoot -13.8463 -10.2014
rtoes -0.951745
lfemur -13.733 -2.50676 -14.8098
ltibia 33.8334
lfoot -17.0874 17.5085
ltoes -7.11095
277
root 2.03298 17.8933 -4.90134 5.44631 -5.36469 1.2218
lowerback -1.29779 0.468635 -8.54293
upperback 2.54015 0.799193 2.7762
thorax 3.23479 0.14156 7.76991
lowerneck -12.4476 -5.39208 -0.219947
upperneck 41.0252 -7.93183 -1.33447
head 16.9295 -3.50402 -1.94515
rclavicle -1.35174e-014 1.15295e-014
rhumerus -3.61151 -27.6132 -21.2955
rradius 92.1216
rwrist 12.1504
rhand -48.6649 -13.785
rfingers 7.12502
rthumb -21.3071 -42.6337
lclavicle -1.35174e-014 1.15295e-014
lhumerus -99.8487 -66.5914 109.695
lradius 115.564
lwrist 26.9197
lhand 57.8021 19.4843
lfingers 7.12502
lthumb 73.981 -5.42324
rfemur -14.7287 -1.04382 7.61722
rtibia 29.5488
rfoot -13.8779 -10.4121
rtoes -0.899071
lfemur -13.8925 -2.52231 -14.9645
ltibia 33.8672
lfoot -17.0282 17.3074
ltoes -7.12277
278
root 2.04525 17.8937 -4.91161 5.49863 -5.16157 1.35422
lowerback -1.14835 0.428071 -8.55253
upperback 2.5689 0.731859 2.82896
thorax 3.19327 0.107767 7.82787
lowerneck -12.3414 -5.39794 -0.561491
upperneck 40.8325 -7.8382 -1.28353
head 16.8213 -3.51571 -1.83457
rclavicle -2.78299e-015 3.18055e-015
rhumerus -5.13754 -27.8426 -20.1027
rradius 90.1085
rwrist 14.8238
rhand -48.9101 -14.5972
rfingers 7.12502
rthumb -21.5427 -43.4191
lclavicle -2.78299e-015 3.18055e-015
lhumerus -94.7513 -67.479 103.889
lradius 116.36
lwrist 29.1941
lhand 58.4497 20.0303
lfingers 7.12502
lthumb 74.1921 -7.02489
rfemur -14.7766 -1.03207 7.4455
rtibia 29.5756
rfoot -13.9122 -10.6491
rtoes -0.833285
lfemur -14.0672 -2.53201 -15.1113
ltibia 33.8836
lfoot -16.9637 17.0858
ltoes -7.1342
279
root 2.05687 17.8946 -4.92204 5.56967 -4.94257 1.48196
lowerback -1.00507 0.383 -8.55677
upperback 2.59255 0.658982 2.87401
thorax 3.15118 0.0716663 7.87456
lowerneck -12.2204 -5.40488 -0.909109
upperneck 40.6247 -7.75373 -1.2115
head 16.7034 -3.52911 -1.71447
rclavicle -2.78299e-015 -1.35174e-014
rhumerus -6.71338 -27.8907 -18.8461
rradius 88.0319
rwrist 17.4157
rhand -48.8051 -15.3039
rfingers 7.12502
rthumb -21.4418 -44.1374
lclavicle -2.78299e-015 -1.35174e-014
lhumerus -88.6142 -68.1853 97.0711
lradius 117.017
lwrist 31.4099
lhand 58.8047 20.4906
lfingers 7.12502
lthumb 74.298 -7.76562
rfemur -14.8341 -1.01496 7.28331
rtibia 29.5947
rfoot -13.9471 -10.9098
rtoes -0.756587
lfemur -14.2552 -2.53333 -15.2484
ltibia 33.8822
lfoot -16.8945 16.8467
ltoes -7.14496
280
root 2.06791 17.8961 -4.93254 5.65878 -4.7128 1.60309
lowerback -0.869509 0.334234 -8.55453
upperback 2.61218 0.581755 2.91294
thorax 3.1103 0.0337274 7.9111
lowerneck -12.0875 -5.41206 -1.26071
upperneck 40.4042 -7.6771 -1.12101
head 16.5778 -3.54353 -1.58656
rclavicle -3.57812e-015 -1.43125e-014
rhumerus -8.31598 -27.7372 -17.5503
rradius 85.911
rwrist 19.8628
rhand -48.3494 -15.8889
rfingers 7.12502
rthumb -21.0041 -44.7715
lclavicle -3.57812e-015 -1.43125e-014
lhumerus -81.5026 -68.6041 89.3157
lradius 117.526
lwrist 33.5273
lhand 58.8607 20.8517
lfingers 7.12502
lthumb 74.314 -7.59576
rfemur -14.9012 -0.991922 7.13248
rtibia 29.6047
rfoot -13.981 -11.1909
rtoes -0.670949
lfemur -14.4542 -2.52531 -15.3747
ltibia 33.8633
lfoot -16.8215 16.5941
ltoes -7.15715
281
root 2.07842 17.8981 -4.94302 5.76509 -4.4771 1.71506
lowerback -0.742974 0.28278 -8.54347
upperback 2.62856 0.501571 2.94714
thorax 3.07181 -0.00540195 7.93768
lowerneck -11.9459 -5.41867 -1.61362
upperneck 40.1747 -7.60698 -1.0151
head 16.4471 -3.55828 -1.45283
rclavicle 5.66536e-015 3.18055e-015
rhumerus -9.92012 -27.3638 -16.2426
rradius 83.765
rwrist 22.1016
rhand -47.5415 -16.3683
rfingers 7.12502
rthumb -20.2278 -45.335
lclavicle 5.66536e-015 3.18055e-015
lhumerus -73.6503 -68.6297 80.8657
lradius 117.875
lwrist 35.509
lhand 58.6178 21.107
lfingers 7.12502
lthumb 74.2431 -6.51496
rfemur -14.9779 -0.962309 6.99547
rtibia 29.6046
rfoot -14.0124 -11.4895
rtoes -0.578725
lfemur -14.6623 -2.50806 -15.4881
ltibia 33.8277
lfoot -16.7452 16.3319
ltoes -7.17378
282
root 2.08848 17.9006 -4.95337 5.88752 -4.23915 1.81658
lowerback -0.62695 0.229409 -8.52177
upperback 2.64215 0.41957 2.9771
thorax 3.03675 -0.0451834 7.9538
lowerneck -11.7984 -5.42384 -1.96341
upperneck 39.9404 -7.54187 -0.898059
head 16.3139 -3.57253 -1.31605
rclavicle -5.36719e-015 -5.56597e-015
rhumerus -11.4993 -26.7567 -14.9536
rradius 81.611
rwrist 24.0772
rhand -46.3796 -16.8028
rfingers 7.12502
rthumb -19.1108 -45.8839
lclavicle -5.36719e-015 -5.56597e-015
lhumerus -65.4645 -68.1806 72.1338
lradius 118.051
lwrist 37.3208
lhand 58.0816 21.2556
lfingers 7.12502
lthumb 74.075 -4.57191
rfemur -15.0633 -0.926918 6.87313
rtibia 29.593
rfoot -14.0406 -11.8015
rtoes -0.481891
lfemur -14.8776 -2.48311 -15.5881
ltibia 33.7766
lfoot -16.6665 16.0642
ltoes -7.19777
283
root 2.09816 17.9036 -4.96346 6.02452 -4.00137 1.90712
lowerback -0.522691 0.174684 -8.48767
upperback 2.65315 0.336606 3.00249
thorax 3.00581 -0.0851835 7.95807
lowerneck -11.6479 -5.42656 -2.30472
upperneck 39.7065 -7.48019 -0.774487
head 16.1809 -3.58537 -1.1792
rclavicle 8.54774e-015 2.38542e-015
rhumerus -13.0279 -25.9066 -13.7146
rradius 79.463
rwrist 25.7468
rhand -44.8581 -17.2709
rfingers 7.12502
rthumb -17.6471 -46.49
lclavicle 8.54774e-015 2.38542e-015
lhumerus -57.4364 -67.2202 63.6133
lradius 118.043
lwrist 38.9382
lhand 57.2676 21.3138
lfingers 7.12502
lthumb 73.7899 -1.86593
rfemur -15.1557 -0.887509 6.7654
rtibia 29.5691
rfoot -14.0655 -12.1226
rtoes -0.381503
lfemur -15.0983 -2.45306 -15.6745
ltibia 33.7118
lfoot -16.5865 15.7941
ltoes -7.23083
284
root 2.10749 17.9069 -4.9732 6.17432 -3.76469 1.98691
lowerback -0.431342 0.118824 -8.43984
upperback 2.66209 0.253095 3.02241
thorax 2.98002 -0.125217 7.94874
lowerneck -11.4974 -5.42591 -2.63152
upperneck 39.4773 -7.42051 -0.649006
head 16.0505 -3.59588 -1.04537
rclavicle -1.25234e-014 -1.98785e-014
rhumerus -14.4812 -24.8127 -12.5573
rradius 77.3301
rwrist 27.0847
rhand -42.9698 -17.8461
rfingers 7.12502
rthumb -15.8293 -47.219
lclavicle -1.25234e-014 -1.98785e-014
lhumerus -50.0003 -65.7642 55.7372
lradius 117.844
lwrist 40.3469
lhand 56.1989 21.3181
lfingers 7.12502
lthumb 73.3638 1.46408
rfemur -15.2528 -0.846571 6.67136
rtibia 29.5323
rfoot -14.0874 -12.4485
rtoes -0.278085
lfemur -15.3227 -2.42147 -15.748
ltibia 33.6352
lfoot -16.5064 15.5242
ltoes -7.27167
285
root 2.11649 17.9105 -4.98251 6.33444 -3.52932 2.05735
lowerback -0.353733 0.0619796 -8.37821
upperback 2.66983 0.169371 3.03546
thorax 2.96058 -0.165188 7.92423
lowerneck -11.35 -5.4213 -2.93818
upperneck 39.257 -7.36186 -0.525683
head 15.925 -3.6034 -0.917288
rclavicle -1.09332e-014 -1.03368e-014
rhumerus -15.8379 -23.4811 -11.5102
rradius 75.2164
rwrist 28.0826
rhand -40.7079 -18.5707
rfingers 7.12502
rthumb -13.6501 -48.1031
lclavicle -1.09332e-014 -1.03368e-014
lhumerus -43.4305 -63.8684 48.7757
lradius 117.45
lwrist 41.5423
lhand 54.91 21.3278
lfingers 7.12502
lthumb 72.7777 5.24665
rfemur -15.3516 -0.806835 6.58889
rtibia 29.4825
rfoot -14.1069 -12.7743
rtoes -0.170777
lfemur -15.549 -2.39203 -15.8102
ltibia 33.5491
lfoot -16.4272 15.2566
ltoes -7.31666
286
root 2.12513 17.9143 -4.99135 6.50205 -3.29486 2.11999
lowerback -0.2902 0.00424288 -8.30327
upperback 2.67789 0.0856543 3.04039
thorax 2.94915 -0.205111 7.88345
lowerneck -11.2093 -5.41252 -3.22026
upperneck 39.0489 -7.30382 -0.407567
head 15.8063 -3.60751 -0.797104
rclavicle 2.04748e-014 1.03368e-014
rhumerus -17.0808 -21.9262 -10.5966
rradius 73.1213
rwrist 28.7493
rhand -38.0732 -19.4534
rfingers 7.12502
rthumb -11.1099 -49.1393
lclavicle 2.04748e-014 1.03368e-014
lhumerus -37.8239 -61.6076 42.822
lradius 116.866
lwrist 42.5274
lhand 53.4373 21.4231
lfingers 7.12502
lthumb 72.0207 9.32591
rfemur -15.4489 -0.770289 6.5159
rtibia 29.4201
rfoot -14.1248 -13.0961
rtoes -0.0579135
lfemur -15.7752 -2.36865 -15.8629
ltibia 33.456
lfoot -16.3497 14.993
ltoes -7.36066
